<svg width="48" height="48" viewBox="0 0 48 48" fill="none" xmlns="http://www.w3.org/2000/svg">
<g clip-path="url(#clip0_2009_2)">
<g clip-path="url(#clip1_2009_2)">
<g filter="url(#filter0_d_2009_2)">
<path d="M5 24L14.5 40.4541H33.5L43 24L33.5 7.5459H14.5L5 24ZM33.5 3.5459C34.9291 3.5459 36.2493 4.30829 36.9639 5.5459L46.4639 22C47.1784 23.2376 47.1784 24.7624 46.4639 26L36.9639 42.4541C36.2493 43.6917 34.9291 44.4541 33.5 44.4541H14.5C13.0709 44.4541 11.7507 43.6917 11.0361 42.4541L1.53613 26C0.821604 24.7624 0.821604 23.2376 1.53613 22L11.0361 5.5459C11.7507 4.30829 13.0709 3.5459 14.5 3.5459H33.5Z" fill="url(#paint0_linear_2009_2)"/>
<path d="M29 11L28.9893 11.2041C28.887 12.2128 28.0357 13 27 13H21C19.8954 13 19 12.1046 19 11V8C19 6.89543 19.8954 6 21 6H27C28.1046 6 29 6.89543 29 8V11Z" fill="url(#paint1_linear_2009_2)"/>
<path d="M27 34C27 35.6569 25.6569 37 24 37C22.3431 37 21 35.6569 21 34C21 32.3431 22.3431 31 24 31C25.6569 31 27 32.3431 27 34Z" fill="url(#paint2_linear_2009_2)"/>
<path d="M36 24C36 25.6569 34.6569 27 33 27C31.3431 27 30 25.6569 30 24C30 22.3431 31.3431 21 33 21C34.6569 21 36 22.3431 36 24Z" fill="url(#paint3_linear_2009_2)"/>
<path d="M18 24C18 25.6569 16.6569 27 15 27C13.3431 27 12 25.6569 12 24C12 22.3431 13.3431 21 15 21C16.6569 21 18 22.3431 18 24Z" fill="url(#paint4_linear_2009_2)"/>
</g>
</g>
</g>
<defs>
<filter id="filter0_d_2009_2" x="-1.99976" y="0.545898" width="53.9995" height="48.9082" filterUnits="userSpaceOnUse" color-interpolation-filters="sRGB">
<feFlood flood-opacity="0" result="BackgroundImageFix"/>
<feColorMatrix in="SourceAlpha" type="matrix" values="0 0 0 0 0 0 0 0 0 0 0 0 0 0 0 0 0 0 127 0" result="hardAlpha"/>
<feOffset dx="1" dy="1"/>
<feGaussianBlur stdDeviation="2"/>
<feComposite in2="hardAlpha" operator="out"/>
<feColorMatrix type="matrix" values="0 0 0 0 0 0 0 0 0 0 0 0 0 0 0 0 0 0 1 0"/>
<feBlend mode="normal" in2="BackgroundImageFix" result="effect1_dropShadow_2009_2"/>
<feBlend mode="normal" in="SourceGraphic" in2="effect1_dropShadow_2009_2" result="shape"/>
</filter>
<linearGradient id="paint0_linear_2009_2" x1="14" y1="7" x2="34.8883" y2="40.4452" gradientUnits="userSpaceOnUse">
<stop stop-color="#11A2CA"/>
<stop offset="1" stop-color="#7216C8"/>
</linearGradient>
<linearGradient id="paint1_linear_2009_2" x1="14" y1="7" x2="34.8883" y2="40.4452" gradientUnits="userSpaceOnUse">
<stop stop-color="#11A2CA"/>
<stop offset="1" stop-color="#7216C8"/>
</linearGradient>
<linearGradient id="paint2_linear_2009_2" x1="14" y1="7" x2="34.8883" y2="40.4452" gradientUnits="userSpaceOnUse">
<stop stop-color="#11A2CA"/>
<stop offset="1" stop-color="#7216C8"/>
</linearGradient>
<linearGradient id="paint3_linear_2009_2" x1="14" y1="7" x2="34.8883" y2="40.4452" gradientUnits="userSpaceOnUse">
<stop stop-color="#11A2CA"/>
<stop offset="1" stop-color="#7216C8"/>
</linearGradient>
<linearGradient id="paint4_linear_2009_2" x1="14" y1="7" x2="34.8883" y2="40.4452" gradientUnits="userSpaceOnUse">
<stop stop-color="#11A2CA"/>
<stop offset="1" stop-color="#7216C8"/>
</linearGradient>
<clipPath id="clip0_2009_2">
<rect width="48" height="48" fill="white"/>
</clipPath>
<clipPath id="clip1_2009_2">
<rect width="48" height="48" fill="white"/>
</clipPath>
</defs>
</svg>
